<svg width="15" height="15" viewBox="0 0 15 15" fill="none" xmlns="http://www.w3.org/2000/svg">
<path d="M7 5.83333C7.15471 5.83333 7.30308 5.89479 7.41248 6.00419C7.52188 6.11358 7.58333 6.26196 7.58333 6.41667V9.91667C7.58333 10.0714 7.52188 10.2197 7.41248 10.3291C7.30308 10.4385 7.15471 10.5 7 10.5C6.84529 10.5 6.69692 10.4385 6.58752 10.3291C6.47812 10.2197 6.41667 10.0714 6.41667 9.91667V6.41667C6.41667 6.26196 6.47812 6.11358 6.58752 6.00419C6.69692 5.89479 6.84529 5.83333 7 5.83333ZM7 4.95833C7.11491 4.95833 7.22869 4.9357 7.33485 4.89173C7.44101 4.84775 7.53747 4.7833 7.61872 4.70205C7.69997 4.6208 7.76442 4.52434 7.80839 4.41818C7.85237 4.31202 7.875 4.19824 7.875 4.08333C7.875 3.96843 7.85237 3.85465 7.80839 3.74849C7.76442 3.64233 7.69997 3.54587 7.61872 3.46461C7.53747 3.38336 7.44101 3.31891 7.33485 3.27494C7.22869 3.23097 7.11491 3.20833 7 3.20833C6.76824 3.20833 6.54598 3.3004 6.38211 3.46427C6.21823 3.62815 6.12617 3.85041 6.12617 4.08217C6.12617 4.31392 6.21823 4.53618 6.38211 4.70006C6.54598 4.86394 6.76824 4.956 7 4.956V4.95833ZM0 7C-1.36979e-08 6.08075 0.18106 5.1705 0.532843 4.32122C0.884626 3.47194 1.40024 2.70026 2.05025 2.05025C2.70026 1.40024 3.47194 0.884626 4.32122 0.532843C5.1705 0.18106 6.08075 0 7 0C7.91925 0 8.8295 0.18106 9.67878 0.532843C10.5281 0.884626 11.2997 1.40024 11.9497 2.05025C12.5998 2.70026 13.1154 3.47194 13.4672 4.32122C13.8189 5.1705 14 6.08075 14 7C14 8.85651 13.2625 10.637 11.9497 11.9497C10.637 13.2625 8.85651 14 7 14C5.14348 14 3.36301 13.2625 2.05025 11.9497C0.737498 10.637 2.76642e-08 8.85651 0 7ZM7 1.16667C5.4529 1.16667 3.96917 1.78125 2.87521 2.87521C1.78125 3.96917 1.16667 5.4529 1.16667 7C1.16667 8.5471 1.78125 10.0308 2.87521 11.1248C3.96917 12.2188 5.4529 12.8333 7 12.8333C8.5471 12.8333 10.0308 12.2188 11.1248 11.1248C12.2188 10.0308 12.8333 8.5471 12.8333 7C12.8333 5.4529 12.2188 3.96917 11.1248 2.87521C10.0308 1.78125 8.5471 1.16667 7 1.16667Z" fill="#808182"/>
</svg>
