<svg width="15" height="11" viewBox="0 0 15 11" fill="none" xmlns="http://www.w3.org/2000/svg">
<path d="M5.5 6.94081C6.00427 6.94135 6.50789 6.90519 7.00675 6.83261L7.04688 6.82677V6.78622V5.32187V5.2686L6.99403 5.27538C6.49867 5.33895 5.99961 5.37049 5.50007 5.36979L5.49994 5.36979C5.00039 5.37049 4.50133 5.33895 4.00597 5.27538L3.95312 5.2686V5.32187V6.78622V6.82677L3.99325 6.83261C4.49211 6.90519 4.99573 6.94135 5.5 6.94081ZM5.5 6.94081C5.50002 6.94081 5.50003 6.94081 5.50005 6.94081L5.5 6.89394L5.49995 6.94081C5.49997 6.94081 5.49998 6.94081 5.5 6.94081ZM10.9531 3.05118V3.09234L10.9939 3.09766C12.1951 3.25435 13.1877 3.58712 13.8787 4.03647C14.5698 4.48597 14.9531 5.04757 14.9531 5.66288V8.125C14.9531 8.87014 14.3821 9.53491 13.4052 10.016C12.4302 10.4962 11.0627 10.7865 9.5 10.7865C7.9373 10.7865 6.56982 10.4962 5.59485 10.016C4.6179 9.53491 4.04688 8.87014 4.04688 8.125V7.784V7.74281L4.00603 7.73751C2.83088 7.58514 1.83814 7.25484 1.14063 6.8053C0.442673 6.35547 0.046875 5.7912 0.046875 5.17045V2.70833C0.046875 1.9632 0.617898 1.29843 1.59485 0.817313C2.56982 0.337173 3.9373 0.046875 5.5 0.046875C7.0627 0.046875 8.43017 0.337173 9.40515 0.817313C10.3821 1.29843 10.9531 1.9632 10.9531 2.70833V3.05118ZM8.79167 7.31947L8.80447 7.41037C9.03354 7.4252 9.2658 7.43324 9.5 7.43324C10.7929 7.43324 11.9241 7.20498 12.7336 6.87314C13.1383 6.7073 13.4645 6.51476 13.6905 6.31022C13.9158 6.10636 14.0469 5.88528 14.0469 5.66288C14.0469 5.49814 13.9691 5.32894 13.8294 5.16569C13.6895 5.00219 13.4847 4.84136 13.2233 4.69211C12.7004 4.39352 11.9445 4.13769 11.0068 4.00012L10.9531 3.99224V4.0465V5.17045C10.9531 6.06194 10.1359 6.83707 8.79167 7.31947ZM10.0469 4.3044V4.21455L9.97318 4.26596C9.46924 4.61751 8.79197 4.90238 7.98911 5.09408L7.95312 5.10268V5.13968V6.57817V6.63968L8.01243 6.62337C8.62797 6.4541 9.13345 6.22938 9.4862 5.97999C9.83663 5.73224 10.0469 5.45227 10.0469 5.17045V4.3044ZM1.02682 4.26596L0.953125 4.21455V4.3044V5.17045C0.953125 5.45227 1.16337 5.73224 1.5138 5.97999C1.86655 6.22938 2.37203 6.4541 2.98757 6.62337L3.04688 6.63968V6.57817V5.13968V5.10268L3.01089 5.09408C2.20803 4.90238 1.53076 4.61751 1.02682 4.26596ZM5.00175 7.82148L4.95312 7.81966V7.86832V8.125C4.95312 8.40681 5.16337 8.68679 5.5138 8.93453C5.86655 9.18392 6.37203 9.40864 6.98757 9.57791L7.04688 9.59422V9.53272V8.08868V8.05161L7.01079 8.04307C6.74567 7.98033 6.48418 7.90354 6.22746 7.81304L6.21857 7.8099L6.20915 7.81045C5.97743 7.82394 5.74147 7.83191 5.5 7.83191C5.33141 7.83191 5.16578 7.82762 5.00175 7.82148ZM7.95312 9.74077V9.78136L7.9933 9.78716C8.99243 9.93142 10.0076 9.93142 11.0067 9.78716L11.0469 9.78136V9.74077V8.27642V8.22315L10.994 8.22993C10.4987 8.29349 9.99961 8.32503 9.50006 8.32434H9.49998C9.00037 8.32458 8.50131 8.29181 8.00615 8.22626L7.95312 8.21924V8.27273V9.74077ZM11.9531 9.53272V9.59422L12.0124 9.57791C12.628 9.40864 13.1335 9.18392 13.4862 8.93453C13.8366 8.68679 14.0469 8.40681 14.0469 8.125V7.25895V7.16909L13.9732 7.2205C13.4692 7.57205 12.792 7.85693 11.9891 8.04863L11.9531 8.05722V8.09422V9.53272ZM10.0469 2.70833C10.0469 2.48594 9.91576 2.26485 9.69053 2.06099C9.46455 1.85645 9.13826 1.66392 8.73364 1.49807C7.92405 1.16623 6.79286 0.937973 5.5 0.937973C4.20714 0.937973 3.07595 1.16623 2.26636 1.49807C1.86174 1.66392 1.53545 1.85645 1.30947 2.06099C1.08424 2.26485 0.953125 2.48594 0.953125 2.70833C0.953125 2.93073 1.08424 3.15181 1.30947 3.35567C1.53545 3.56021 1.86174 3.75275 2.26636 3.9186C3.07595 4.25043 4.20714 4.47869 5.5 4.47869C6.79286 4.47869 7.92405 4.25043 8.73364 3.9186C9.13826 3.75275 9.46455 3.56021 9.69053 3.35567C9.91576 3.15181 10.0469 2.93073 10.0469 2.70833Z" fill="#808182" stroke="#808182" stroke-width="0.09375"/>
</svg>
