<svg width="17" height="14" viewBox="0 0 17 14" fill="none" xmlns="http://www.w3.org/2000/svg">
<path d="M15.8884 10.8252C15.4507 10.3876 15.013 9.94232 14.5678 9.50464C14.5074 9.44427 14.4471 9.37635 14.3791 9.31598C14.3446 9.28103 14.3035 9.25328 14.2581 9.23434C14.2128 9.2154 14.1642 9.20564 14.115 9.20564C14.0659 9.20564 14.0172 9.2154 13.9719 9.23434C13.9266 9.25328 13.8854 9.28103 13.8509 9.31598C13.8155 9.35106 13.7875 9.39279 13.7683 9.43877C13.7492 9.48475 13.7393 9.53407 13.7393 9.58388C13.7393 9.63369 13.7492 9.683 13.7683 9.72898C13.7875 9.77496 13.8155 9.81669 13.8509 9.85177L14.7112 10.712H6.44802C6.00371 10.712 5.5776 10.5355 5.26342 10.2214C4.94925 9.90719 4.77275 9.48108 4.77275 9.03677C4.77275 8.59246 4.94925 8.16635 5.26342 7.85218C5.5776 7.538 6.00371 7.3615 6.44802 7.3615H8.71189C9.0305 7.3615 9.34598 7.29875 9.64033 7.17683C9.93468 7.0549 10.2021 6.87619 10.4274 6.65091C10.6527 6.42562 10.8314 6.15817 10.9533 5.86382C11.0753 5.56947 11.138 5.25398 11.138 4.93538C11.138 4.61678 11.0753 4.30129 10.9533 4.00694C10.8314 3.71259 10.6527 3.44514 10.4274 3.21985C10.2021 2.99457 9.93468 2.81586 9.64033 2.69393C9.34598 2.57201 9.0305 2.50926 8.71189 2.50926H4.73501C4.64151 2.05118 4.38125 1.64414 4.00469 1.36706C3.62813 1.08997 3.1621 0.962568 2.69695 1.00956C2.2318 1.05655 1.80066 1.27458 1.48713 1.62138C1.17359 1.96818 1 2.41905 1 2.88657C1 3.35409 1.17359 3.80496 1.48713 4.15176C1.80066 4.49856 2.2318 4.71659 2.69695 4.76358C3.1621 4.81057 3.62813 4.68317 4.00469 4.40608C4.38125 4.129 4.64151 3.72196 4.73501 3.26388H8.71189C9.1552 3.26388 9.58036 3.43999 9.89382 3.75345C10.2073 4.06692 10.3834 4.49207 10.3834 4.93538C10.3834 5.37869 10.2073 5.80384 9.89382 6.11731C9.58036 6.43077 9.1552 6.60688 8.71189 6.60688H6.44802C6.12892 6.60688 5.81294 6.66973 5.51813 6.79184C5.22333 6.91396 4.95546 7.09294 4.72982 7.31858C4.50418 7.54421 4.3252 7.81208 4.20308 8.10689C4.08097 8.4017 4.01812 8.71767 4.01812 9.03677C4.01812 9.35587 4.08097 9.67185 4.20308 9.96665C4.3252 10.2615 4.50418 10.5293 4.72982 10.755C4.95546 10.9806 5.22333 11.1596 5.51813 11.2817C5.81294 11.4038 6.12892 11.4667 6.44802 11.4667H10.5834H14.7187L14.0396 12.1458C13.9716 12.2062 13.9113 12.2741 13.8509 12.3345C13.8155 12.3696 13.7875 12.4113 13.7683 12.4573C13.7492 12.5033 13.7393 12.5526 13.7393 12.6024C13.7393 12.6522 13.7492 12.7015 13.7683 12.7475C13.7875 12.7935 13.8155 12.8352 13.8509 12.8703C13.9224 12.9375 14.0169 12.9749 14.115 12.9749C14.2132 12.9749 14.3076 12.9375 14.3791 12.8703L15.6997 11.5497L15.8884 11.361C15.9238 11.3259 15.9518 11.2842 15.971 11.2382C15.9901 11.1923 16 11.1429 16 11.0931C16 11.0433 15.9901 10.994 15.971 10.948C15.9518 10.902 15.9238 10.8603 15.8884 10.8252ZM2.88618 4.01851C2.6623 4.01851 2.44346 3.95212 2.25731 3.82774C2.07116 3.70336 1.92608 3.52658 1.8404 3.31974C1.75473 3.11291 1.73231 2.88531 1.77599 2.66574C1.81967 2.44616 1.92747 2.24447 2.08578 2.08617C2.24408 1.92786 2.44578 1.82006 2.66535 1.77638C2.88492 1.7327 3.11252 1.75512 3.31935 1.84079C3.52619 1.92647 3.70297 2.07155 3.82735 2.2577C3.95173 2.44384 4.01812 2.66269 4.01812 2.88657C4.01812 3.18678 3.89886 3.47469 3.68658 3.68697C3.4743 3.89925 3.18639 4.01851 2.88618 4.01851Z" fill="#808182" stroke="#808182" stroke-width="0.5"/>
</svg>
