<svg width="16" height="15" viewBox="0 0 16 15" fill="none" xmlns="http://www.w3.org/2000/svg">
<path d="M4.80131 4.24586C4.79903 4.66007 5.13295 4.9977 5.54716 4.99999C5.96137 5.00227 6.299 4.66834 6.30129 4.25414L4.80131 4.24586ZM13.4293 13.4286L13.9593 13.9593L13.9596 13.959L13.4293 13.4286ZM6.30129 10.7459C6.299 10.3317 5.96137 9.99773 5.54716 10C5.13295 10.0023 4.79903 10.3399 4.80131 10.7541L6.30129 10.7459ZM9.45 8.25C9.86421 8.25 10.2 7.91421 10.2 7.5C10.2 7.08579 9.86421 6.75 9.45 6.75V8.25ZM1 7.5L0.511906 6.93056C0.345672 7.07304 0.25 7.28106 0.25 7.5C0.25 7.71894 0.345672 7.92696 0.511906 8.06944L1 7.5ZM3.76309 6.11944C4.07759 5.84988 4.11401 5.3764 3.84444 5.06191C3.57488 4.74741 3.1014 4.71099 2.78691 4.98056L3.76309 6.11944ZM2.78691 10.0194C3.1014 10.289 3.57488 10.2526 3.84444 9.93809C4.11401 9.6236 4.07759 9.15012 3.76309 8.88056L2.78691 10.0194ZM6.30129 4.25414C6.30522 3.54138 6.32419 3.05966 6.38969 2.7033C6.45127 2.36832 6.5428 2.21056 6.65168 2.10168L5.59102 1.04102C5.2007 1.43134 5.01111 1.90603 4.91441 2.43213C4.82163 2.93686 4.80518 3.54487 4.80131 4.24586L6.30129 4.25414ZM6.65168 2.10168C6.77484 1.97852 6.96286 1.87495 7.41059 1.81472C7.87994 1.75159 8.50969 1.75 9.45 1.75V0.25C8.55211 0.25 7.80321 0.248406 7.21063 0.328113C6.59641 0.410729 6.03921 0.592826 5.59102 1.04102L6.65168 2.10168ZM9.45 1.75H10.1V0.25H9.45V1.75ZM10.1 1.75C11.0406 1.75 11.6706 1.75159 12.14 1.81473C12.5878 1.87495 12.7758 1.97853 12.899 2.10168L13.9596 1.04102C13.5114 0.592817 12.9542 0.410724 12.3399 0.328111C11.7473 0.248406 10.9982 0.25 10.1 0.25V1.75ZM12.899 2.10168C13.0216 2.22432 13.1251 2.41213 13.1853 2.86022C13.2484 3.32973 13.25 3.95972 13.25 4.9H14.75C14.75 4.00208 14.7516 3.2531 14.672 2.66051C14.5895 2.04649 14.4077 1.48908 13.9596 1.04102L12.899 2.10168ZM13.25 4.9V10.1H14.75V4.9H13.25ZM13.25 10.1C13.25 11.0403 13.2484 11.6703 13.1853 12.1398C13.1251 12.5879 13.0216 12.7757 12.899 12.8983L13.9596 13.959C14.4077 13.5109 14.5895 12.9535 14.672 12.3395C14.7516 11.7469 14.75 10.9979 14.75 10.1H13.25ZM12.8993 12.898C12.7756 13.0215 12.5873 13.1251 12.1397 13.1853C11.6704 13.2484 11.0406 13.25 10.1 13.25V14.75C10.9982 14.75 11.7471 14.7516 12.3397 14.6719C12.954 14.5893 13.511 14.4071 13.9593 13.9593L12.8993 12.898ZM10.1 13.25H9.45V14.75H10.1V13.25ZM9.45 13.25C8.50969 13.25 7.87994 13.2484 7.41059 13.1853C6.96286 13.1251 6.77484 13.0215 6.65168 12.8983L5.59102 13.959C6.03921 14.4072 6.59641 14.5893 7.21063 14.6719C7.80321 14.7516 8.55211 14.75 9.45 14.75V13.25ZM6.65168 12.8983C6.5428 12.7894 6.45127 12.6317 6.38969 12.2967C6.32419 11.9403 6.30522 11.4586 6.30129 10.7459L4.80131 10.7541C4.80518 11.4551 4.82163 12.0631 4.91441 12.5679C5.01111 13.094 5.2007 13.5687 5.59102 13.959L6.65168 12.8983ZM9.45 6.75H1V8.25H9.45V6.75ZM1.48809 8.06944L3.76309 6.11944L2.78691 4.98056L0.511906 6.93056L1.48809 8.06944ZM0.511906 8.06944L2.78691 10.0194L3.76309 8.88056L1.48809 6.93056L0.511906 8.06944Z" fill="#FD8A09"/>
</svg>
