<svg width="15" height="15" viewBox="0 0 15 15" fill="none" xmlns="http://www.w3.org/2000/svg">
<path d="M7.49963 0C11.6417 0 14.9992 3.35758 14.9992 7.49962C14.9992 11.6417 11.6417 14.9992 7.49963 14.9992C6.30268 15.0009 5.12286 14.7149 4.05955 14.1653L1.1902 14.9655C1.03011 15.0102 0.861025 15.0115 0.700264 14.9693C0.539503 14.9271 0.392848 14.8429 0.275325 14.7254C0.157801 14.6079 0.073635 14.4612 0.0314501 14.3005C-0.0107349 14.1397 -0.00942188 13.9706 0.0352545 13.8106L0.836214 10.9434C0.285256 9.87921 -0.00155152 8.69802 6.31239e-06 7.49962C6.31239e-06 3.35758 3.35759 0 7.49963 0ZM7.49963 1.12494C5.80896 1.12494 4.18753 1.79656 2.99205 2.99204C1.79657 4.18753 1.12495 5.80895 1.12495 7.49962C1.12495 8.60207 1.40469 9.66176 1.92966 10.6022L2.04215 10.8047L1.2082 13.7926L4.19829 12.9586L4.40078 13.0711C5.25153 13.5441 6.1993 13.816 7.17141 13.8659C8.14352 13.9158 9.11415 13.7425 10.0089 13.3591C10.9036 12.9758 11.6987 12.3927 12.3331 11.6544C12.9675 10.9162 13.4245 10.0425 13.6689 9.10025C13.9133 8.15804 13.9387 7.17237 13.7431 6.21883C13.5475 5.26529 13.1362 4.36919 12.5406 3.59927C11.945 2.82934 11.1811 2.20603 10.3072 1.77713C9.43344 1.34823 8.47302 1.12513 7.49963 1.12494ZM5.06225 8.24958H8.43558C8.57809 8.24963 8.71527 8.30377 8.81941 8.40106C8.92354 8.49835 8.98686 8.63154 8.99657 8.77372C9.00629 8.9159 8.96167 9.05646 8.87174 9.16701C8.7818 9.27756 8.65326 9.34985 8.51208 9.36928L8.43558 9.37453H5.06225C4.91974 9.37448 4.78256 9.32035 4.67843 9.22306C4.57429 9.12576 4.51097 8.99257 4.50126 8.85039C4.49155 8.70822 4.53616 8.56765 4.6261 8.4571C4.71603 8.34655 4.84457 8.27426 4.98576 8.25483L5.06225 8.24958ZM5.06225 5.62472H9.94076C10.0832 5.62495 10.2203 5.67922 10.3242 5.77657C10.4282 5.87392 10.4914 6.0071 10.501 6.14922C10.5106 6.29135 10.466 6.43182 10.376 6.54229C10.2861 6.65276 10.1576 6.725 10.0165 6.74441L9.94076 6.74966H5.06225C4.91974 6.74962 4.78256 6.69548 4.67843 6.59819C4.57429 6.5009 4.51097 6.36771 4.50126 6.22553C4.49155 6.08335 4.53616 5.94278 4.6261 5.83223C4.71603 5.72168 4.84457 5.64939 4.98576 5.62997L5.06225 5.62472Z" fill="#808182"/>
</svg>
