<svg width="15" height="15" viewBox="0 0 15 15" fill="none" xmlns="http://www.w3.org/2000/svg">
<path d="M3.21045 9.21031L3.21047 9.2103C4.2017 8.65292 5.57797 8.30426 7.10539 8.30426C8.63145 8.30426 10.0077 8.65294 10.9989 9.2103C11.9958 9.77051 12.5795 10.5275 12.5795 11.3372C12.5795 12.2105 12.5748 12.9424 11.9209 13.4742C11.5906 13.7436 11.0854 13.9688 10.3102 14.1254C10.3101 14.1254 10.31 14.1254 10.3099 14.1254L10.2275 13.717C9.49004 13.8663 8.4819 13.9535 7.10469 13.9535C5.72748 13.9535 4.71864 13.8663 3.9819 13.717L3.21045 9.21031ZM3.21045 9.21031C2.21451 9.77039 1.62988 10.5273 1.62988 11.3372C1.62988 12.2109 1.63463 12.9424 2.28856 13.475L2.28872 13.4751C2.61866 13.7435 3.12358 13.9687 3.89914 14.1253L3.21045 9.21031ZM1.41671 11.4087V11.4084V11.3372C1.41671 10.4156 2.07942 9.60218 3.10614 9.02411C4.13457 8.44573 5.54896 8.09109 7.10469 8.09109C8.66089 8.09109 10.0745 8.44563 11.1037 9.02396C12.1298 9.60204 12.7927 10.4155 12.7927 11.3372V11.4084L12.7927 11.4087C12.7934 12.2413 12.7765 13.0531 12.0561 13.6401C11.6883 13.9389 11.1467 14.1741 10.353 14.3341L10.3526 14.3342C9.55746 14.4954 8.50385 14.5833 7.10469 14.5833C5.70547 14.5833 4.65124 14.4953 3.85759 14.3342L3.85706 14.3341C3.06316 14.174 2.52108 13.9389 2.15414 13.6402C1.43352 13.0531 1.41599 12.2411 1.41671 11.4087ZM5.056 1.26526C5.59935 0.721916 6.33628 0.416667 7.10469 0.416667C7.8731 0.416667 8.61003 0.721916 9.15338 1.26526C9.69673 1.80861 10.002 2.54555 10.002 3.31395C10.002 4.08236 9.69673 4.8193 9.15338 5.36264C8.61003 5.90599 7.8731 6.21124 7.10469 6.21124C6.33628 6.21124 5.59935 5.90599 5.056 5.36264C4.51265 4.8193 4.2074 4.08236 4.2074 3.31395C4.2074 2.54555 4.51265 1.80861 5.056 1.26526ZM5.20674 1.416C4.70337 1.91937 4.42058 2.60208 4.42058 3.31395C4.42058 4.02582 4.70337 4.70854 5.20674 5.2119C5.71011 5.71527 6.39282 5.99806 7.10469 5.99806C7.81656 5.99806 8.49927 5.71527 9.00264 5.2119C9.50601 4.70854 9.7888 4.02582 9.7888 3.31395C9.7888 2.60208 9.50601 1.91937 9.00264 1.416C8.49927 0.912634 7.81656 0.629845 7.10469 0.629845C6.39282 0.629845 5.71011 0.912634 5.20674 1.416Z" fill="#808182" stroke="#808182" stroke-width="0.833333"/>
</svg>
