<svg width="13" height="15" viewBox="0 0 13 15" fill="none" xmlns="http://www.w3.org/2000/svg">
<path fill-rule="evenodd" clip-rule="evenodd" d="M6.10469 0C5.22577 0 4.38286 0.349148 3.76137 0.970634C3.13988 1.59212 2.79074 2.43504 2.79074 3.31395C2.79074 4.19287 3.13988 5.03579 3.76137 5.65727C4.38286 6.27876 5.22577 6.62791 6.10469 6.62791C6.9836 6.62791 7.82652 6.27876 8.44801 5.65727C9.0695 5.03579 9.41864 4.19287 9.41864 3.31395C9.41864 2.43504 9.0695 1.59212 8.44801 0.970634C7.82652 0.349148 6.9836 0 6.10469 0ZM3.83725 3.31395C3.83725 2.71259 4.07614 2.13586 4.50137 1.71063C4.92659 1.2854 5.50333 1.04651 6.10469 1.04651C6.70605 1.04651 7.28278 1.2854 7.70801 1.71063C8.13324 2.13586 8.37213 2.71259 8.37213 3.31395C8.37213 3.91532 8.13324 4.49205 7.70801 4.91728C7.28278 5.3425 6.70605 5.5814 6.10469 5.5814C5.50333 5.5814 4.92659 5.3425 4.50137 4.91728C4.07614 4.49205 3.83725 3.91532 3.83725 3.31395ZM6.10469 7.67442C4.49097 7.67442 3.00353 8.0414 1.9019 8.66093C0.816318 9.27209 3.90013e-05 10.1972 3.90013e-05 11.3372V11.4084C-0.000658673 12.2191 -0.00135641 13.2363 0.890969 13.9633C1.32981 14.3205 1.94446 14.5751 2.77469 14.7426C3.60632 14.9114 4.6912 15 6.10469 15C7.51818 15 8.60236 14.9114 9.43539 14.7426C10.2656 14.5751 10.8796 14.3205 11.3191 13.9633C12.2114 13.2363 12.21 12.2191 12.2093 11.4084V11.3372C12.2093 10.1972 11.3931 9.27209 10.3082 8.66093C9.20585 8.0414 7.71911 7.67442 6.10469 7.67442ZM1.04655 11.3372C1.04655 10.7435 1.4805 10.0988 2.41469 9.57349C3.33283 9.05721 4.63609 8.72093 6.10539 8.72093C7.57329 8.72093 8.87655 9.05721 9.79469 9.57349C10.7296 10.0988 11.1628 10.7435 11.1628 11.3372C11.1628 12.2498 11.1349 12.7633 10.6577 13.1512C10.3996 13.3619 9.96701 13.5677 9.22748 13.717C8.49004 13.8663 7.4819 13.9535 6.10469 13.9535C4.72748 13.9535 3.71864 13.8663 2.9819 13.717C2.24236 13.5677 1.80981 13.3619 1.55167 13.1519C1.07446 12.7633 1.04655 12.2498 1.04655 11.3372Z" fill="#808182"/>
</svg>
