<svg width="17" height="15" viewBox="0 0 17 15" fill="none" xmlns="http://www.w3.org/2000/svg">
<path d="M1 2.5C1 2.10218 1.15804 1.72064 1.43934 1.43934C1.72064 1.15804 2.10218 1 2.5 1H7V14.5H2.5C2.10218 14.5 1.72064 14.342 1.43934 14.0607C1.15804 13.7794 1 13.3978 1 13V2.5ZM10 1H14.5C14.8978 1 15.2794 1.15804 15.5607 1.43934C15.842 1.72064 16 2.10218 16 2.5V6.25H10V1ZM10 9.25H16V13C16 13.3978 15.842 13.7794 15.5607 14.0607C15.2794 14.342 14.8978 14.5 14.5 14.5H10V9.25Z" stroke="#808182" stroke-linecap="round" stroke-linejoin="round"/>
</svg>
