<svg width="14" height="15" viewBox="0 0 14 15" fill="none" xmlns="http://www.w3.org/2000/svg">
<path fill-rule="evenodd" clip-rule="evenodd" d="M6.06558 0H7.53907C8.8214 0 9.83721 0 10.6319 0.106744C11.4495 0.216977 12.1116 0.448605 12.6342 0.970465C13.156 1.49302 13.3877 2.15512 13.4979 2.97279C13.6047 3.76814 13.6047 4.78326 13.6047 6.06558V8.93442C13.6047 10.2167 13.6047 11.2326 13.4979 12.0272C13.3877 12.8449 13.156 13.507 12.6342 14.0295C12.1116 14.5514 11.4495 14.783 10.6319 14.8933C9.83651 15 8.8214 15 7.53907 15H6.06558C4.78326 15 3.76744 15 2.97279 14.8933C2.15512 14.783 1.49302 14.5514 0.970465 14.0295C0.448605 13.507 0.216977 12.8449 0.106744 12.0272C8.31693e-08 11.2319 0 10.2167 0 8.93442V6.06558C0 4.78326 8.31693e-08 3.76744 0.106744 2.97279C0.216977 2.15512 0.448605 1.49302 0.970465 0.970465C1.49302 0.448605 2.15512 0.216977 2.97279 0.106744C3.76814 0 4.78326 0 6.06558 0ZM3.11163 1.14419C2.40977 1.23837 2.00512 1.41558 1.7093 1.7107C1.41488 2.00581 1.23767 2.41047 1.14349 3.11233C1.04721 3.82953 1.04581 4.77419 1.04581 6.10465V8.89535C1.04581 10.2258 1.04721 11.1712 1.14349 11.8884C1.23767 12.5895 1.41488 12.9942 1.71 13.2893C2.00512 13.5844 2.40977 13.7616 3.11163 13.8558C3.82884 13.9521 4.77349 13.9535 6.10395 13.9535H7.4993C8.82977 13.9535 9.77512 13.9521 10.4923 13.8558C11.1935 13.7616 11.5981 13.5844 11.8933 13.2893C12.1884 12.9942 12.3656 12.5895 12.4598 11.8877C12.556 11.1712 12.5574 10.2258 12.5574 8.89535V6.10465C12.5574 4.77419 12.556 3.82953 12.4598 3.11163C12.3656 2.41047 12.1884 2.00581 11.8933 1.7107C11.5981 1.41558 11.1935 1.23837 10.4916 1.14419C9.77512 1.04791 8.82977 1.04651 7.4993 1.04651H6.10395C4.77349 1.04651 3.82954 1.04791 3.11163 1.14419ZM3.48837 6.10465C3.48837 5.96587 3.5435 5.83278 3.64163 5.73465C3.73976 5.63652 3.87285 5.5814 4.01163 5.5814H9.59302C9.7318 5.5814 9.86489 5.63652 9.96302 5.73465C10.0612 5.83278 10.1163 5.96587 10.1163 6.10465C10.1163 6.24343 10.0612 6.37652 9.96302 6.47465C9.86489 6.57278 9.7318 6.62791 9.59302 6.62791H4.01163C3.87285 6.62791 3.73976 6.57278 3.64163 6.47465C3.5435 6.37652 3.48837 6.24343 3.48837 6.10465ZM3.48837 8.89535C3.48837 8.75657 3.5435 8.62348 3.64163 8.52535C3.73976 8.42722 3.87285 8.37209 4.01163 8.37209H7.5C7.63878 8.37209 7.77187 8.42722 7.87 8.52535C7.96813 8.62348 8.02326 8.75657 8.02326 8.89535C8.02326 9.03412 7.96813 9.16722 7.87 9.26535C7.77187 9.36348 7.63878 9.4186 7.5 9.4186H4.01163C3.87285 9.4186 3.73976 9.36348 3.64163 9.26535C3.5435 9.16722 3.48837 9.03412 3.48837 8.89535Z" fill="#808182"/>
</svg>
