<svg width="14" height="15" viewBox="0 0 14 15" fill="none" xmlns="http://www.w3.org/2000/svg">
<path d="M3.05621 0.731221L3.05624 0.731217C3.80829 0.63036 4.78524 0.629845 6.10395 0.629845H7.4993C8.8179 0.629845 9.79633 0.630355 10.547 0.731221H3.05621ZM3.05621 0.731221C2.30768 0.831671 1.80088 1.03078 1.41502 1.41572L1.41433 1.41642M3.05621 0.731221L1.41433 1.41642M1.41433 1.41642C1.03002 1.80164 0.830958 2.3085 0.730526 3.05689L1.41433 1.41642ZM10.5478 14.2688L10.5478 14.2688C9.79638 14.3696 8.81797 14.3702 7.4993 14.3702H6.10395C4.78529 14.3702 3.80759 14.3696 3.05621 14.2688C3.0562 14.2688 3.0562 14.2688 3.05619 14.2688L3.11163 13.8558L10.5478 14.2688ZM10.5478 14.2688C11.2955 14.1683 11.8026 13.9692 12.1879 13.5839M10.5478 14.2688L12.1879 13.5839M12.8727 3.05616L12.8727 3.05624C12.9736 3.80829 12.9741 4.78595 12.9741 6.10465V8.89535C12.9741 10.2139 12.9736 11.1924 12.8727 11.9431L12.8727 3.05616ZM12.8727 3.05616C12.7723 2.30844 12.5732 1.80136 12.1879 1.41607M12.8727 3.05616L12.1879 1.41607M7.53907 0.416667H6.06558C4.77235 0.416667 3.78978 0.417526 3.02846 0.519675L7.53907 0.416667ZM7.53907 0.416667C8.83236 0.416667 9.81559 0.417528 10.5762 0.519675L7.53907 0.416667ZM1.26509 1.26509C0.833586 1.69728 0.623729 2.25679 0.519702 3.02826L1.26509 1.26509ZM1.26509 1.26509C1.6973 0.833565 2.25684 0.623709 3.02838 0.519687L1.26509 1.26509ZM12.1879 13.5839C12.5732 13.1986 12.7723 12.6915 12.8727 11.9432L12.1879 13.5839ZM12.1879 1.41607C11.8026 1.03075 11.2955 0.831663 10.5471 0.731231L12.1879 1.41607ZM0.730526 11.9438L0.730531 11.9438L0.730524 3.05691C0.629659 3.80829 0.629147 4.78599 0.629147 6.10465V8.89535C0.629147 10.214 0.629659 11.1924 0.730526 11.9438ZM10.5764 0.519702C11.3478 0.623717 11.9072 0.833537 12.3394 1.26494C12.7711 1.69719 12.9809 2.25679 13.085 3.02846C13.1871 3.78978 13.188 4.77235 13.188 6.06558V8.93442C13.188 10.2277 13.1871 11.2109 13.085 11.9715C12.981 12.743 12.7712 13.3025 12.3398 13.7347C12.3396 13.7348 12.3395 13.735 12.3394 13.7351L10.5764 0.519702ZM0.519675 11.9715C0.417526 11.2102 0.416667 10.2277 0.416667 8.93442V6.06558C0.416667 4.77229 0.417528 3.78906 0.519675 3.02846V11.9715ZM3.90504 6.10465C3.90504 6.07638 3.91627 6.04927 3.93626 6.02928C3.95625 6.00929 3.98336 5.99806 4.01163 5.99806H9.59302C9.62129 5.99806 9.6484 6.00929 9.6684 6.02928C9.68838 6.04927 9.69961 6.07638 9.69961 6.10465C9.69961 6.13292 9.68838 6.16003 9.66839 6.18002C9.6484 6.20001 9.62129 6.21124 9.59302 6.21124H4.01163C3.98336 6.21124 3.95625 6.20001 3.93626 6.18002C3.91627 6.16003 3.90504 6.13292 3.90504 6.10465ZM3.90504 8.89535C3.90504 8.86708 3.91627 8.83997 3.93626 8.81998C3.95625 8.79999 3.98336 8.78876 4.01163 8.78876H7.5C7.52827 8.78876 7.55538 8.79999 7.57537 8.81998C7.59536 8.83997 7.60659 8.86708 7.60659 8.89535C7.60659 8.92362 7.59536 8.95073 7.57537 8.97072C7.55538 8.99071 7.52827 9.00194 7.5 9.00194H4.01163C3.98336 9.00194 3.95625 8.99071 3.93626 8.97072C3.91627 8.95073 3.90504 8.92362 3.90504 8.89535Z" fill="#808182" stroke="#808182" stroke-width="0.833333"/>
</svg>
