<svg width="17" height="15" viewBox="0 0 17 15" fill="none" xmlns="http://www.w3.org/2000/svg">
<path d="M15.8884 11.8252C15.4507 11.3876 15.013 10.9423 14.5678 10.5046C14.5074 10.4443 14.4471 10.3764 14.3791 10.316C14.3446 10.281 14.3035 10.2533 14.2581 10.2343C14.2128 10.2154 14.1642 10.2056 14.115 10.2056C14.0659 10.2056 14.0172 10.2154 13.9719 10.2343C13.9266 10.2533 13.8854 10.281 13.8509 10.316C13.8155 10.3511 13.7875 10.3928 13.7683 10.4388C13.7492 10.4847 13.7393 10.5341 13.7393 10.5839C13.7393 10.6337 13.7492 10.683 13.7683 10.729C13.7875 10.775 13.8155 10.8167 13.8509 10.8518L14.7112 11.712H6.44802C6.00371 11.712 5.5776 11.5355 5.26342 11.2214C4.94925 10.9072 4.77275 10.4811 4.77275 10.0368C4.77275 9.59246 4.94925 9.16635 5.26342 8.85218C5.5776 8.538 6.00371 8.3615 6.44802 8.3615H8.71189C9.0305 8.3615 9.34598 8.29875 9.64033 8.17683C9.93468 8.0549 10.2021 7.87619 10.4274 7.65091C10.6527 7.42562 10.8314 7.15817 10.9533 6.86382C11.0753 6.56947 11.138 6.25398 11.138 5.93538C11.138 5.61678 11.0753 5.30129 10.9533 5.00694C10.8314 4.71259 10.6527 4.44514 10.4274 4.21985C10.2021 3.99457 9.93468 3.81586 9.64033 3.69393C9.34598 3.57201 9.0305 3.50926 8.71189 3.50926H4.73501C4.64151 3.05118 4.38125 2.64414 4.00469 2.36706C3.62813 2.08997 3.1621 1.96257 2.69695 2.00956C2.2318 2.05655 1.80066 2.27458 1.48713 2.62138C1.17359 2.96818 1 3.41905 1 3.88657C1 4.35409 1.17359 4.80496 1.48713 5.15176C1.80066 5.49856 2.2318 5.71659 2.69695 5.76358C3.1621 5.81057 3.62813 5.68317 4.00469 5.40608C4.38125 5.129 4.64151 4.72196 4.73501 4.26388H8.71189C9.1552 4.26388 9.58036 4.43999 9.89382 4.75345C10.2073 5.06692 10.3834 5.49207 10.3834 5.93538C10.3834 6.37869 10.2073 6.80384 9.89382 7.11731C9.58036 7.43077 9.1552 7.60688 8.71189 7.60688H6.44802C6.12892 7.60688 5.81294 7.66973 5.51813 7.79184C5.22333 7.91396 4.95546 8.09294 4.72982 8.31858C4.50418 8.54421 4.3252 8.81208 4.20308 9.10689C4.08097 9.4017 4.01812 9.71767 4.01812 10.0368C4.01812 10.3559 4.08097 10.6718 4.20308 10.9667C4.3252 11.2615 4.50418 11.5293 4.72982 11.755C4.95546 11.9806 5.22333 12.1596 5.51813 12.2817C5.81294 12.4038 6.12892 12.4667 6.44802 12.4667H10.5834H14.7187L14.0396 13.1458C13.9716 13.2062 13.9113 13.2741 13.8509 13.3345C13.8155 13.3696 13.7875 13.4113 13.7683 13.4573C13.7492 13.5033 13.7393 13.5526 13.7393 13.6024C13.7393 13.6522 13.7492 13.7015 13.7683 13.7475C13.7875 13.7935 13.8155 13.8352 13.8509 13.8703C13.9224 13.9375 14.0169 13.9749 14.115 13.9749C14.2132 13.9749 14.3076 13.9375 14.3791 13.8703L15.6997 12.5497L15.8884 12.361C15.9238 12.3259 15.9518 12.2842 15.971 12.2382C15.9901 12.1923 16 12.1429 16 12.0931C16 12.0433 15.9901 11.994 15.971 11.948C15.9518 11.902 15.9238 11.8603 15.8884 11.8252ZM2.88618 5.01851C2.6623 5.01851 2.44346 4.95212 2.25731 4.82774C2.07116 4.70336 1.92608 4.52658 1.8404 4.31974C1.75473 4.11291 1.73231 3.88531 1.77599 3.66574C1.81967 3.44616 1.92747 3.24447 2.08578 3.08617C2.24408 2.92786 2.44578 2.82006 2.66535 2.77638C2.88492 2.7327 3.11252 2.75512 3.31935 2.84079C3.52619 2.92647 3.70297 3.07155 3.82735 3.2577C3.95173 3.44384 4.01812 3.66269 4.01812 3.88657C4.01812 4.18678 3.89886 4.47469 3.68658 4.68697C3.4743 4.89925 3.18639 5.01851 2.88618 5.01851Z" fill="#808182" stroke="#808182" stroke-width="0.5"/>
</svg>
