<svg width="18" height="14" viewBox="0 0 18 14" fill="none" xmlns="http://www.w3.org/2000/svg">
<path d="M13.2 4.16142V3.75C13.2 1.8975 10.3628 0.5 6.6 0.5C2.83725 0.5 0 1.8975 0 3.75V6.70455C0 8.24756 1.96875 9.47369 4.8 9.8408V10.25C4.8 12.1025 7.63725 13.5 11.4 13.5C15.1628 13.5 18 12.1025 18 10.25V7.29545C18 5.76648 16.0935 4.53886 13.2 4.16142ZM16.8 7.29545C16.8 8.27193 14.4908 9.36364 11.4 9.36364C11.1203 9.36364 10.8428 9.35403 10.569 9.33631C12.1868 8.75574 13.2 7.8125 13.2 6.70455V5.35579C15.4403 5.68449 16.8 6.57676 16.8 7.29545ZM4.8 8.64347V6.88625C5.39683 6.96284 5.99812 7.00084 6.6 7C7.20188 7.00084 7.80317 6.96284 8.4 6.88625V8.64347C7.80405 8.73017 7.20241 8.77338 6.6 8.77273C5.99759 8.77338 5.39595 8.73017 4.8 8.64347ZM12 5.66528V6.70455C12 7.32426 11.0693 7.98977 9.6 8.39381V6.66761C10.5683 6.43642 11.388 6.09222 12 5.66528ZM6.6 1.68182C9.69075 1.68182 12 2.77352 12 3.75C12 4.72648 9.69075 5.81818 6.6 5.81818C3.50925 5.81818 1.2 4.72648 1.2 3.75C1.2 2.77352 3.50925 1.68182 6.6 1.68182ZM1.2 6.70455V5.66528C1.812 6.09222 2.63175 6.43642 3.6 6.66761V8.39381C2.13075 7.98977 1.2 7.32426 1.2 6.70455ZM6 10.25V9.94199C6.19725 9.94938 6.39675 9.95455 6.6 9.95455C6.891 9.95455 7.17525 9.94494 7.45425 9.92869C7.76419 10.038 8.0799 10.1307 8.4 10.2064V11.9393C6.93075 11.5352 6 10.8697 6 10.25ZM9.6 12.1889V10.4273C10.1966 10.5063 10.798 10.5457 11.4 10.5455C12.0019 10.5463 12.6032 10.5083 13.2 10.4317V12.1889C12.0064 12.3613 10.7936 12.3613 9.6 12.1889ZM14.4 11.9393V10.2131C15.3683 9.98187 16.188 9.63767 16.8 9.21074V10.25C16.8 10.8697 15.8693 11.5352 14.4 11.9393Z" fill="#FDFDFD"/>
</svg>
